/* XPM */
static char *cdedc329685a45f6f9894260fd57c97cgHeihLiGEzd12y7H[] = {
/* columns rows colors chars-per-pixel */
"64 64 242 2 ",
"   c #15371E",
".  c #2E382F",
"X  c #1E3D1E",
"o  c #603D07",
"O  c #47380E",
"+  c #05592B",
"@  c #175729",
"#  c #0C4E29",
"$  c #2A4B34",
"%  c #255436",
"&  c #345234",
"*  c #02622F",
"=  c #056833",
"-  c #027C3A",
";  c #067337",
":  c #10753B",
">  c #574D1B",
",  c #6A5918",
"<  c #714F0B",
"1  c #5D6A1B",
"2  c #77671C",
"3  c #6D6A17",
"4  c #505131",
"5  c #655733",
"6  c #7B7529",
"7  c #686836",
"8  c #746E32",
"9  c #4E7939",
"0  c #183E43",
"q  c #0C3B42",
"w  c #1A525A",
"e  c #394844",
"r  c #2B4C4F",
"t  c #396548",
"y  c #3F7350",
"u  c #155967",
"i  c #0D5161",
"p  c #215F6C",
"a  c #2C6C78",
"s  c #4A5649",
"d  c #5A595A",
"f  c #5A5A53",
"g  c #4A534D",
"h  c #635F5D",
"j  c #57654A",
"k  c #5A665A",
"l  c #50774F",
"z  c #6B6748",
"x  c #767447",
"c  c #676758",
"v  c #6A7553",
"b  c #767659",
"n  c #446768",
"m  c #576868",
"M  c #4F7074",
"N  c #636363",
"B  c #6A6D6A",
"V  c #696D62",
"C  c #777867",
"Z  c #787678",
"A  c #7F7F7F",
"S  c #797975",
"D  c #6C7670",
"F  c #4F5960",
"G  c #845409",
"H  c #8D6710",
"J  c #AF740C",
"K  c #977528",
"L  c #89732F",
"P  c #AA7B28",
"I  c #D47610",
"U  c #E57A09",
"Y  c #87764C",
"T  c #807F7A",
"R  c #817F66",
"E  c #01823C",
"W  c #028E42",
"Q  c #009142",
"!  c #5D8257",
"~  c #6C835C",
"^  c #78886A",
"/  c #B08917",
"(  c #888226",
")  c #938E35",
"_  c #B38932",
"`  c #ACAC2F",
"'  c #948E0D",
"]  c #DB8A0A",
"[  c #D29113",
"{  c #E58B05",
"}  c #F18E01",
"|  c #E99A06",
" . c #E69407",
".. c #F39500",
"X. c #F29C13",
"o. c #ECA508",
"O. c #F2AB04",
"+. c #F6B406",
"@. c #EBA316",
"#. c #F3B81A",
"$. c #D39626",
"%. c #CC8926",
"&. c #EAAA26",
"*. c #F2AC35",
"=. c #EEB233",
"-. c #D99C27",
";. c #F7C80E",
":. c #CCCE26",
">. c #F8CC34",
",. c #948859",
"<. c #8F8A50",
"1. c #A8974C",
"2. c #AC9149",
"3. c #ACA84B",
"4. c #898767",
"5. c #899369",
"6. c #93916E",
"7. c #848479",
"8. c #989378",
"9. c #A29965",
"0. c #A19D76",
"q. c #9FA77C",
"w. c #A6A47B",
"e. c #B5AB73",
"r. c #D7AD4A",
"t. c #EDB246",
"y. c #CEB46D",
"u. c #E2BF68",
"i. c #DCDA48",
"p. c #DEDA55",
"a. c #F8CF49",
"s. c #D2C576",
"d. c #F3C968",
"f. c #F1D074",
"g. c #F9E66E",
"h. c #17758C",
"j. c #25788B",
"k. c #5E7A96",
"l. c #2F869B",
"z. c #1691B3",
"x. c #2B93AE",
"c. c #568B99",
"v. c #748C8F",
"b. c #489AAC",
"n. c #75A7B4",
"m. c #7A90A8",
"M. c #15AFDC",
"N. c #1AB1DC",
"B. c #36A8C8",
"V. c #37AED0",
"C. c #25B4DD",
"Z. c #2DB5DD",
"A. c #37B8DD",
"S. c #20A2C7",
"D. c #34B9E0",
"F. c #3BBBE1",
"G. c #44B7D8",
"H. c #56B8D2",
"J. c #55ADC6",
"K. c #75B7C8",
"L. c #42BDE1",
"P. c #58C0DF",
"I. c #4CC0E2",
"U. c #69CAE6",
"Y. c #74CEE8",
"T. c #79CFE9",
"R. c #7AD0E9",
"E. c #76D0E9",
"W. c #8B898B",
"Q. c #878887",
"!. c #999688",
"~. c #9C999C",
"^. c #989793",
"/. c #8B908C",
"(. c #95A591",
"). c #ABA883",
"_. c #B2AF83",
"`. c #B9B589",
"'. c #A6A59C",
"]. c #B1AE98",
"[. c #B5B595",
"{. c #95AAAE",
"}. c #ADADAB",
"|. c #A2A3A0",
" X c #B9BAB7",
".X c #B7B6AC",
"XX c #A39C90",
"oX c #C7BD88",
"OX c #E2B98E",
"+X c #C9C494",
"@X c #D3CD99",
"#X c #D6D29E",
"$X c #DBD69D",
"%X c #DAC988",
"&X c #F4D98D",
"*X c #E9D490",
"=X c #FDE98C",
"-X c #F7E89A",
";X c #DAD6A1",
":X c #DEDAA5",
">X c #D5D1A2",
",X c #C3C2B8",
"<X c #E4DDA5",
"1X c #F6DDA5",
"2X c #E5E1A9",
"3X c #EAE5AC",
"4X c #F2EDB2",
"5X c #F8EFB7",
"6X c #F6F2B5",
"7X c #FAF5BC",
"8X c #F4E8A8",
"9X c #9DB2C8",
"0X c #95B6D2",
"qX c #95ACC7",
"wX c #AFB8C8",
"eX c #A9C5DA",
"rX c #ACC5D6",
"tX c #8AD4EA",
"yX c #98D8EB",
"uX c #85CDE3",
"iX c #AADCEC",
"pX c #B6D8E5",
"aX c #A8D7E9",
"sX c #B3E3F1",
"dX c #A9E0F0",
"fX c #85C1D2",
"gX c #C7C8C6",
"hX c #D9D9D6",
"jX c #CFD2D0",
"kX c #E5E4DE",
"lX c #FBF4D7",
"zX c #F2ECCA",
"xX c #CFE3ED",
"cX c #CBEAF4",
"vX c #DBF1F7",
"bX c #D9E9EC",
"nX c #EAEAE7",
"mX c #F8F4E9",
"MX c #FDFDFC",
"NX c #F5F6F4",
"BX c #EDF2F0",
"VX c #C3DCEA",
/* pixels */
"~.~.~.~.~.~.~.~.~.~.~.~.~.~.~.~.~.~.~.~.W.W.W.W.W.W.W.W.~.~.~.~.~.~.~.~.~.~.~.~.W.W.W.W.~.~.~.~.~.~.~.~.W.W.W.W.~.~.~.~.B B B B ",
"~.~.~.~.~.~.~.~.~.~.~.~.~.~.~.~.~.~.~.~.W.W.W.W.W.W.W.W.~.~.~.~.~.~.~.~.~.~.~.~.W.W.W.W.~.~.~.~.~.~.~.~.W.W.W.W.~.~.~.~.B B B B ",
"~.~.~.~.~.~.~.~.~.~.~.~.~.~.~.~.~.~.~.~.W.W.W.W.W.W.W.W.~.~.~.~.~.~.~.~.~.~.~.~.W.W.W.W.~.~.~.~.~.~.~.~.W.W.W.W.~.~.~.~.B B B B ",
"~.~.~.~.~.~.~.~.~.~.~.~.~.~.~.~.~.~.~.~.W.W.W.W.W.W.W.W.~.~.~.~.~.~.~.~.~.~.~.~.W.W.W.W.~.~.~.~.~.~.~.~.W.W.W.W.~.~.~.~.B B B B ",
"~.~.~.~.A A A A A A A A k.T T T B B B B A A A A A A A A A A A A A A A A B B B B B B B B A A A A A A A A A A A A A A A A d d d d ",
"~.~.~.~.A A A A A A A A 7.T T Q.B B B B A A A A A A A A A A A A A A A A B B B B B B B B A A A A A A A A A A A A A A A A d d d d ",
"~.~.~.~.A A A A A A A A A A A A B B B B A A A A A A A A A A A A A A A A B B B B B B B B A A A A A A A A A A A A A A A A d d d d ",
"~.~.~.~.A A A A A A A A A A A A B B B B A A A A A A A A A A A A A A A A B B B B B B B B A A A A A A A A A A A A A A A A d d d d ",
"W.W.W.W.A A A A N N N N N N N N d d d d d d d d d d d d d d d d N N N N N N N N N N N N N N N N B B B B Z Z Z Z B B B B d d d d ",
"W.W.W.W.A A A A N N N N N N N N d d d d d d d d d d d d d d d d N N N N N N N N N N N N N N N N B B B B Z Z Z Z B B B B d d d d ",
"W.W.W.W.A A A A N N N N N N N N d d d d d d d d d d d d d d d d N N N N N N N N N N N N N N N N B B B B Z Z Z Z B B B B d d d d ",
"W.W.W.W.A A A A N N N N N N N N d d d d d d d d d d d d d d d d N N N N N N N N N N N N N N N N B B B B Z Z Z Z B B B B d d d d ",
"W.W.W.W.B B B B d d d d ~.~.~.~.~.~.~.~.~.~.~.~.Q.W.W.W.W.W.W.!.~.~.~.~.~.~.~.~.W.W.W.W.~.~.~.~.N N N N W.W.W.W.Z Z Z Z d d d d ",
"W.W.W.W.B B B B d d d d ~.~.~.~.~.~.~.~.~.~.~.~.W.W.W.Q.W.Q.W..X~.~.~.~.~.~.~.~.W.W.W.W.~.~.~.~.N N N N W.W.W.W.Z Z Z Z d d d d ",
"W.W.W.W.B B B B d d d d ~.~.~.~.~.~.~.~.~.~.~.~.W.W.8.,X|.Q.MXMXW.hXhX~.~.~.~.~.W.W.W.W.~.~.~.~.N N N N W.W.W.W.Z Z Z Z d d d d ",
"W.W.W.W.B B B B d d d d ~.~.~.~.~.~.~.~.~.~.~.~.W.W.T MXjX}.MXMXNXMXgX~.~.~.~.~.W.W.W.W.~.~.~.~.N N N N W.W.W.W.Z Z Z Z d d d d ",
"~.~.~.~.A A A A d d d d ~.~.~.~.W.W.W.W.T A A A A A A wXMXT hX7XlX,XA A A A A A A A A A B B B B N N N N W.W.W.W.A A A A d d d d ",
"~.~.~.~.A A A A d d d d ~.~.~.~.W.W.W.W.A A A A A A A ^ mXgXb =X<Xf A A A A A A A A A A B B B B N N N N W.W.W.W.A A A A d d d d ",
"~.~.~.~.A A A A d d d d ~.~.~.~.W.W.W.W.A A A A A A 7.e.lX^.).f.<._.^ A A A A A A A A A B B B B N N N N W.W.W.W.A A A A d d d d ",
"~.~.~.~.A A A A d d d d ~.~.~.~.W.W.W.W.A A A A A 1.!.t.2.7 *Xt.> e.,.A A A T 7.A A A A B B B B N N N N W.W.W.W.A A A A d d d d ",
"~.~.~.~.A A A A d d d d ~.~.~.~.A A A A Z Z Z Z B ].d.P ' ^ g./ 3 8 s.Z Z Z Z S A T T A Z Z Z Z N N N N W.W.W.W.A A A A d d d d ",
"~.~.~.~.A A A A d d d d ~.~.~.~.A A A T Z Z Z R ].1X_ @ @ [.a.< J 3 s.> Z Z 9.jXzXjXx A Z Z Z Z N N N N W.W.W.W.A A A A d d d d ",
"~.~.~.~.A A A A d d d d ~.~.~.~.A A A 2.,.S T ].mXt.X E % 5X>.< ] < 2.9.3 4.*Xa.&.a.OX> k.R Z Z N N N N W.W.W.W.A A A A d d d d ",
"~.~.~.~.A A A A d d d d ~.~.~.~.A A ....{ Y }.mXd.> = = S -X| H } o L =XBX~.> [  .O.P P L Z Z Z N N N N W.W.W.W.A A A A d d d d ",
"W.W.W.W.B B B B d d d d W.W.W.W.T ....J Y  XNX1XK # = l ,Xa.+./ ..G , =.1XlX,X2 U U H P , B B B N N N N ~.~.~.~.Z Z Z Z d d d d ",
"W.W.W.W.B B B B d d d d W.W.W.W.....G !.mXmXOX*.> # '.mX-X;.;.K { < [ @.=.&XmXB [ } U I / B B B N N N N ~.~.~.~.Z Z Z Z d d d d ",
"W.W.W.W.B B B B d d d d W.W.W.....{ c lX&X&.@.-.L  XlXa.#.+.+.1.H O J O.O.=.1XkXY ] J ] ..B B B N N N N ~.~.~.~.Z Z Z Z d d d d ",
"W.W.W.W.B B B B d d d d W.W.8./ 1 @ s *X;.{  .%.f NX&X@.O. .+.) 3 L [ | X.#.d.mXc C ) , { B B B N N N N ~.~.~.~.Z Z Z Z d d d d ",
"W.W.W.W.A A A A d d d d ~.~...1 * ; * 6 o.|  .L jXzXd. .]  .o.( :.( ] o...+.>.lXf 8 i.` 5 XX8.R d d d d ~.~.~.~.B B B B d d d d ",
"W.W.W.W.A A A A d d d d ~.~.| H - * + & o.O.;.z '.2.P X.X.] %.2 :.( o.o.| o.>.1X. 1.i.) |.MXMXMX!.d d d ~.~.~.~.B B B B d d d d ",
"W.W.W.W.A A A A d d d d ~.XX{ J : + = + 1.r.<.D P $.H [ { I 7 ` :.3 [ ] I o.>.9.&     c .XMXMXMXNX6 d d ~.~.~.~.B B B B d d d d ",
"W.W.W.W.A A A A d d d d ~.&.2.oXl = E *   b q.7.R P z y.%.%.0.` :.7 , { U @.g.5.# * - % ^.MXMXMXkXg > d ~.~.~.~.B B B B d d d d ",
"W.W.W.W.B B B B d d j c 4.$.f.7X+X. m % # (.)./. Xc zXnX;X&X#X7 <.u.] } } *._.= + + E ~ w.}.MXBXV ,X7.Q.c ~.~.~.Z Z Z Z d d d d ",
"W.W.W.W.B B B B d g {.(.%Xr.%X@X^ kXMXNX}.>Xd NXMX}.c 5X4X<X<Xf.&.........t.t ; = = : _.:X`.c b ;X<X+Xh qXv.~.~.Z Z Z Z d d d d ",
"W.W.W.W.B B B B F aXrX6.u.%.t._.gXMXMXMXmX`.c nXMXMX}.oX&Xt.X.....} ..&.&X:X& - + W ! $X5.% * & 6X2X4X8.n.h.~.~.Z Z Z Z d d d d ",
"W.W.W.W.B B B V J.b.[.<Xe.d.oX_.~.MXMXMXnXc j g m ,X,X0.t.....X.*.d.%X`.w.<X:Xv + ; _.7 * ; * + #X@X2X{.$ n.~.~.Z Z Z Z d d d d ",
"~.~.~.~.B B B V BXM zX8X6.`.4X4XR D gX,X& + + : E v j $X<X&X-X%X`.~ 7 1.3.x >X6Xw.s `.<.9 E + . 4X6X;Xe }.kX~.~.Z Z Z Z d d d d ",
"~.~.~.~.B B B V U.h.k +X6X[.w.2X4X4XR s E - = = ; j -Xr.r.<X3XR 6 p.p.i.i.` w.:X5X3X$X5.! ^ +X@X0.k u x.F.c.~.~.Z Z Z Z d d d d ",
"~.~.~.~.B B B B a iXH.i f ).:X4X6X2X+Xb E Q Q E E s %X$.r.6X2X:X_.x <.x x w.2Xw.#X5X3X$Xw.b g q {.G.Z.iXx.~.~.~.Z Z Z Z d d d d ",
"~.~.~.~.B B B B V g hXL.H.l.M 4 4 4.+X`.q.5.! ! ! ~ 1Xy.%X6X<X3X6X7X4X6X<X<X@X4.C 4 $ w /.k.pXL.Y.C.pXF '.^.~.~.Z Z Z Z d d d d ",
"~.~.~.~.T A A A N N , k.B.G.0XrXm.c.a u F g c ^ b f R 6.8.6.6.b z v c s r u m A k.0XA.F.0XjXqXuXx.p d d W.W.W.W.Z Z Z Z d d d d ",
"~.~.~.~.A A A A N N N N 4 e c.{.pXZ.iXG.U.eXpXC.aXG.H.{.rXz.fXV.H.9XeXC.yXZ.U.0XpXN.iXA.K.M g 0 d d d d W.W.W.W.Z Z Z Z d d d d ",
"~.~.~.~.A A A A N N N N |.~.v.a u w v.c.z.J.S.V.bXyXZ.L.Z.G.bXtXZ.H.Z.V.VXK.z.c.h.p m m h.x.z.b.d d d d W.W.W.W.Z Z Z Z d d d d ",
"~.~.~.~.A A A A N N N N ~.~.~.m.aXBXhXjX}.M F k h g g 0 0 g d g e 0 r g N D W.l.wXnXMXMXvXD.M B d d d d W.W.W.W.Z Z Z Z d d d d ",
"~.~.~.~.A A A A N N N N ~.~.~.^.^ bXMXMXdXF.Y.vXMXMXsXF.U.vXMXNXsXD.U.vXMXMXsXD.E.vXMXMXdXj.B B h N N N W.W.W.W.A A Q.T d d d d ",
"~.~.~.~.A A A A N N N N ~.~.~.~.k.% bXE.M.Y.Z.C.vXT.M.U.F.M.cXY.N.Y.L.N.cXU.N.T.Z.N.vXE.h.7 B B N N N N W.W.W.W.A A T T d d d d ",
"~.~.~.~.A A A A N N N N ~.~.~.~.T S C B.yXrXxXF.tXD.R.wXxXZ.T.D.R.rXVXD.tXC.uX0XxXZ.tXB.1 B B B N N N N W.W.W.W.A A T T d d d d ",
"~.~.~.~.A A A A N N N h ~.~.~.~.S S Z B qXwXqXtXD.F.pXwX9XyXF.L.eXwXwXtXD.F.eXwX9XyXx.% D B B B N N N N W.W.W.W.A A 7.k.d d d d ",
"~.~.~.~.A A A A B B B B N N N N N N N N N N N N d d d d d d d d d d d d d d d d d d d d N N N N N N N N W.W.W.W.Z Z Z Z d d d d ",
"~.~.~.~.A A A A B B B B N N N N N N N N N N N N d d d d d d d d d d d d d d d d d d d d N N N N N N N N W.W.W.W.Z Z Z Z d d d d ",
"~.~.~.~.A A A A B B B B N N N N N N N N N N N N d d d d d d d d d d d d d d d d d d d d N N N N N N N N W.W.W.W.Z Z Z Z d d d d ",
"~.~.~.~.A A A A B B B B N N N N N N N N N N N N d d d d d d d d d d d d d d d d d d d d N N N N N N N N W.W.W.W.Z Z Z Z d d d d ",
"W.W.W.W.W.W.W.W.~.~.~.~.~.~.~.~.W.W.W.W.W.W.W.W.~.~.~.~.~.~.~.~.~.~.~.~.~.~.~.~.W.W.W.W.W.W.W.W.W.W.W.W.A A A A Z Z Z Z d d d d ",
"W.W.W.W.W.W.W.W.~.~.~.~.~.~.~.~.W.W.W.W.W.W.W.W.~.~.~.~.~.~.~.~.~.~.~.~.~.~.~.~.W.W.W.W.W.W.W.W.W.W.W.W.A A A A Z Z Z Z d d d d ",
"W.W.W.W.W.W.W.W.~.~.~.~.~.~.~.~.W.W.W.W.W.W.W.W.~.~.~.~.~.~.~.~.~.~.~.~.~.~.~.~.W.W.W.W.W.W.W.W.W.W.W.W.A A A A Z Z Z Z d d d d ",
"W.W.W.W.W.W.W.W.~.~.~.~.~.~.~.~.W.W.W.W.W.W.W.W.~.~.~.~.~.~.~.~.~.~.~.~.~.~.~.~.W.W.W.W.W.W.W.W.W.W.W.W.A A A A Z Z Z Z d d d d ",
"W.W.W.W.Z Z Z Z Z Z Z Z A A A A Z Z Z Z B B B B Z Z Z Z A A A A A A A A Z Z Z Z Z Z Z Z B B B B Z Z Z Z B B B B B B B B d d d d ",
"W.W.W.W.Z Z Z Z Z Z Z Z A A A A Z Z Z Z B B B B Z Z Z Z A A A A A A A A Z Z Z Z Z Z Z Z B B B B Z Z Z Z B B B B B B B B d d d d ",
"W.W.W.W.Z Z Z Z Z Z Z Z A A A A Z Z Z Z B B B B Z Z Z Z A A A A A A A A Z Z Z Z Z Z Z Z B B B B Z Z Z Z B B B B B B B B d d d d ",
"W.W.W.W.Z Z Z Z Z Z Z Z A A A A Z Z Z Z B B B B Z Z Z Z A A A A A A A A Z Z Z Z Z Z Z Z B B B B Z Z Z Z B B B B B B B B d d d d ",
"B B B B d d d d d d d d d d d d d d d d d d d d d d d d d d d d d d d d d d d d d d d d d d d d d d d d d d d d d d d d d d d d ",
"B B B B d d d d d d d d d d d d d d d d d d d d d d d d d d d d d d d d d d d d d d d d d d d d d d d d d d d d d d d d d d d d ",
"B B B B d d d d d d d d d d d d d d d d d d d d d d d d d d d d d d d d d d d d d d d d d d d d d d d d d d d d d d d d d d d d ",
"B B B B d d d d d d d d d d d d d d d d d d d d d d d d d d d d d d d d d d d d d d d d d d d d d d d d d d d d d d d d d d d d "
};
